<svg width="14" height="16" viewBox="0 0 14 16" fill="none" xmlns="http://www.w3.org/2000/svg">
<path d="M11.7668 8.44648C11.7598 7.15625 12.3434 6.18242 13.5246 5.46523C12.8637 4.51953 11.8652 3.99922 10.5469 3.89727C9.29883 3.79883 7.93477 4.625 7.43555 4.625C6.9082 4.625 5.69883 3.93242 4.74961 3.93242C2.78789 3.96406 0.703125 5.49688 0.703125 8.61523C0.703125 9.53633 0.871875 10.4879 1.20937 11.4699C1.65937 12.7602 3.28359 15.9242 4.97813 15.8715C5.86406 15.8504 6.48984 15.2422 7.64297 15.2422C8.76094 15.2422 9.34102 15.8715 10.3289 15.8715C12.0375 15.8469 13.507 12.9711 13.9359 11.6773C11.6437 10.598 11.7668 8.51328 11.7668 8.44648ZM9.77695 2.67383C10.7367 1.53477 10.6488 0.497656 10.6207 0.125C9.77344 0.174219 8.79258 0.701563 8.23359 1.35195C7.61836 2.04805 7.25625 2.90938 7.33359 3.87969C8.25117 3.95 9.08789 3.47891 9.77695 2.67383Z" fill="#404040"/>
</svg>
