<svg width="24" height="20" viewBox="0 0 24 20" fill="none" xmlns="http://www.w3.org/2000/svg">
<path d="M0.75 0.9375C0.75 0.417969 1.16797 0 1.6875 0H3.46484C4.32422 0 5.08594 0.5 5.44141 1.25H21.4961C22.5234 1.25 23.2734 2.22656 23.0039 3.21875L21.4023 9.16797C21.0703 10.3945 19.957 11.25 18.6875 11.25H7.41797L7.62891 12.3633C7.71484 12.8047 8.10156 13.125 8.55078 13.125H19.8125C20.332 13.125 20.75 13.543 20.75 14.0625C20.75 14.582 20.332 15 19.8125 15H8.55078C7.19922 15 6.03906 14.0391 5.78906 12.7148L3.77344 2.12891C3.74609 1.98047 3.61719 1.875 3.46484 1.875H1.6875C1.16797 1.875 0.75 1.45703 0.75 0.9375ZM5.75 18.125C5.75 17.8788 5.7985 17.635 5.89273 17.4075C5.98695 17.18 6.12506 16.9733 6.29917 16.7992C6.47328 16.6251 6.67998 16.487 6.90747 16.3927C7.13495 16.2985 7.37877 16.25 7.625 16.25C7.87123 16.25 8.11505 16.2985 8.34253 16.3927C8.57002 16.487 8.77672 16.6251 8.95083 16.7992C9.12494 16.9733 9.26305 17.18 9.35727 17.4075C9.4515 17.635 9.5 17.8788 9.5 18.125C9.5 18.3712 9.4515 18.615 9.35727 18.8425C9.26305 19.07 9.12494 19.2767 8.95083 19.4508C8.77672 19.6249 8.57002 19.763 8.34253 19.8573C8.11505 19.9515 7.87123 20 7.625 20C7.37877 20 7.13495 19.9515 6.90747 19.8573C6.67998 19.763 6.47328 19.6249 6.29917 19.4508C6.12506 19.2767 5.98695 19.07 5.89273 18.8425C5.7985 18.615 5.75 18.3712 5.75 18.125ZM18.875 16.25C19.3723 16.25 19.8492 16.4475 20.2008 16.7992C20.5525 17.1508 20.75 17.6277 20.75 18.125C20.75 18.6223 20.5525 19.0992 20.2008 19.4508C19.8492 19.8025 19.3723 20 18.875 20C18.3777 20 17.9008 19.8025 17.5492 19.4508C17.1975 19.0992 17 18.6223 17 18.125C17 17.6277 17.1975 17.1508 17.5492 16.7992C17.9008 16.4475 18.3777 16.25 18.875 16.25Z" fill="white"/>
</svg>
