<svg width="12" height="12" viewBox="0 0 12 12" fill="none" xmlns="http://www.w3.org/2000/svg">
<g clip-path="url(#clip0_93_409)">
<path d="M3.91875 0.414844L3.75 0.75H1.5C1.08516 0.75 0.75 1.08516 0.75 1.5C0.75 1.91484 1.08516 2.25 1.5 2.25H10.5C10.9148 2.25 11.25 1.91484 11.25 1.5C11.25 1.08516 10.9148 0.75 10.5 0.75H8.25L8.08125 0.414844C7.95469 0.159375 7.69453 0 7.41094 0H4.58906C4.30547 0 4.04531 0.159375 3.91875 0.414844ZM10.5 3H1.5L1.99688 10.9453C2.03438 11.5383 2.52656 12 3.11953 12H8.88047C9.47344 12 9.96562 11.5383 10.0031 10.9453L10.5 3Z" fill="#525252"/>
</g>
<defs>
<clipPath id="clip0_93_409">
<path d="M0.75 0H11.25V12H0.75V0Z" fill="white"/>
</clipPath>
</defs>
</svg>
