<svg width="18" height="18" viewBox="0 0 18 18" fill="none" xmlns="http://www.w3.org/2000/svg">
<g clip-path="url(#clip0_93_282)">
<path d="M17.75 9.20391C17.75 14.1785 14.3434 17.7188 9.3125 17.7188C4.48906 17.7188 0.59375 13.8234 0.59375 9C0.59375 4.17656 4.48906 0.28125 9.3125 0.28125C11.6609 0.28125 13.6367 1.14258 15.159 2.56289L12.7859 4.84453C9.68164 1.84922 3.90898 4.09922 3.90898 9C3.90898 12.041 6.33828 14.5055 9.3125 14.5055C12.7648 14.5055 14.0586 12.0305 14.2625 10.7473H9.3125V7.74844H17.6129C17.6938 8.19492 17.75 8.62383 17.75 9.20391Z" fill="#404040"/>
</g>
<defs>
<clipPath id="clip0_93_282">
<path d="M0.59375 0H17.75V18H0.59375V0Z" fill="white"/>
</clipPath>
</defs>
</svg>
