<svg width="34" height="32" viewBox="0 0 34 32" fill="none" xmlns="http://www.w3.org/2000/svg">
<path d="M7.04812 30L21.3511 16.6892L28.0819 23.3446M7.04812 30H23.8752C26.6632 30 28.9233 27.7652 28.9233 25.0084V16.6892M7.04812 30C4.26012 30 2 27.7652 2 25.0084V8.36993C2 5.61317 4.26012 3.37838 7.04812 3.37838H17.9857M27.2406 11.4122L27.2406 6.70608M27.2406 6.70608L27.2406 2M27.2406 6.70608L22.4812 6.70608M27.2406 6.70608L32 6.70608M12.0962 10.8657C12.0962 12.2441 10.9662 13.3615 9.57218 13.3615C8.17818 13.3615 7.04812 12.2441 7.04812 10.8657C7.04812 9.48733 8.17818 8.36993 9.57218 8.36993C10.9662 8.36993 12.0962 9.48733 12.0962 10.8657Z" stroke="white" stroke-width="3" stroke-linecap="round" stroke-linejoin="round"/>
</svg>
