<svg width="16" height="16" viewBox="0 0 16 16" fill="none" xmlns="http://www.w3.org/2000/svg">
<path d="M8 9.75L7.34382 10.5046C7.72009 10.8318 8.27991 10.8318 8.65618 10.5046L8 9.75ZM4.33568 10.6335C4.86696 10.4826 5.17534 9.9296 5.02446 9.39832C4.87359 8.86704 4.3206 8.55866 3.78932 8.70954L4.0625 9.6715L4.33568 10.6335ZM12.2107 8.70954C11.6794 8.55866 11.1264 8.86704 10.9755 9.39832C10.8247 9.92959 11.133 10.4826 11.6643 10.6335L11.9375 9.6715L12.2107 8.70954ZM11.5 4.42391H10.5C10.5 4.75653 10.3659 5.20309 10.0737 5.74314C9.78864 6.2698 9.39599 6.80749 8.98292 7.30138C8.57263 7.79194 8.15946 8.21886 7.84758 8.52396C7.69225 8.67591 7.56355 8.79618 7.47487 8.87742C7.43057 8.91801 7.39636 8.94876 7.37394 8.96875C7.36273 8.97874 7.35447 8.98604 7.34938 8.99052C7.34683 8.99276 7.34508 8.99429 7.34414 8.99511C7.34368 8.99552 7.34341 8.99575 7.34336 8.9958C7.34333 8.99582 7.34336 8.9958 7.34343 8.99573C7.34347 8.9957 7.34357 8.99561 7.34359 8.9956C7.3437 8.9955 7.34382 8.99539 8 9.75C8.65618 10.5046 8.65633 10.5045 8.65649 10.5043C8.65657 10.5043 8.65674 10.5041 8.65689 10.504C8.65718 10.5037 8.65752 10.5034 8.65792 10.5031C8.65871 10.5024 8.65972 10.5015 8.66093 10.5005C8.66336 10.4983 8.66663 10.4955 8.67071 10.4919C8.67886 10.4847 8.69025 10.4746 8.70468 10.4618C8.73352 10.4361 8.77451 10.3992 8.82591 10.3521C8.92864 10.258 9.07338 10.1227 9.24617 9.95362C9.59054 9.61674 10.0524 9.14012 10.5171 8.58449C10.979 8.03218 11.4614 7.38101 11.8326 6.69504C12.1966 6.02245 12.5 5.2326 12.5 4.42391H11.5ZM8 9.75C8.65618 8.99539 8.6563 8.9955 8.65641 8.9956C8.65643 8.99561 8.65653 8.9957 8.65657 8.99573C8.65665 8.9958 8.65667 8.99582 8.65664 8.9958C8.65659 8.99575 8.65633 8.99552 8.65586 8.99511C8.65492 8.99429 8.65317 8.99276 8.65062 8.99052C8.64553 8.98604 8.63728 8.97874 8.62607 8.96875C8.60364 8.94876 8.56943 8.91801 8.52513 8.87742C8.43645 8.79618 8.30775 8.67591 8.15242 8.52396C7.84054 8.21886 7.42737 7.79194 7.01708 7.30138C6.60401 6.80749 6.21137 6.2698 5.92635 5.74314C5.63409 5.20309 5.5 4.75653 5.5 4.42391H4.5H3.5C3.5 5.2326 3.80342 6.02245 4.1674 6.69504C4.53864 7.38101 5.02099 8.03218 5.48292 8.58449C5.94763 9.14012 6.40946 9.61674 6.75383 9.95362C6.92663 10.1227 7.07136 10.258 7.17409 10.3521C7.22549 10.3992 7.26648 10.4361 7.29532 10.4618C7.30975 10.4746 7.32114 10.4847 7.3293 10.4919C7.33337 10.4955 7.33664 10.4983 7.33907 10.5005C7.34029 10.5015 7.34129 10.5024 7.34208 10.5031C7.34248 10.5034 7.34282 10.5037 7.34311 10.504C7.34326 10.5041 7.34344 10.5043 7.34351 10.5043C7.34367 10.5045 7.34382 10.5046 8 9.75ZM4.5 4.42391H5.5C5.5 3.10583 6.59846 2 8 2V1V0C5.53555 0 3.5 1.96005 3.5 4.42391H4.5ZM8 1V2C9.40155 2 10.5 3.10583 10.5 4.42391H11.5H12.5C12.5 1.96005 10.4644 0 8 0V1ZM15 12.0833H14C14 12.1377 13.9778 12.28 13.7481 12.5062C13.5149 12.736 13.1262 12.9889 12.5651 13.2227C11.4474 13.6884 9.83397 14 8 14V15V16C10.032 16 11.9186 15.6587 13.3344 15.0688C14.0401 14.7748 14.6764 14.3992 15.1517 13.931C15.6305 13.4594 16 12.8344 16 12.0833H15ZM8 15V14C6.16603 14 4.5526 13.6884 3.43487 13.2227C2.87382 12.9889 2.48508 12.736 2.25188 12.5062C2.0222 12.28 2 12.1377 2 12.0833H1H0C0 12.8344 0.369547 13.4594 0.848311 13.931C1.32355 14.3992 1.95993 14.7748 2.66564 15.0688C4.08141 15.6587 5.96797 16 8 16V15ZM1 12.0833H2C2 12.0185 2.03833 11.8065 2.44849 11.4904C2.84862 11.182 3.48443 10.8752 4.33568 10.6335L4.0625 9.6715L3.78932 8.70954C2.7919 8.99279 1.89645 9.39071 1.22751 9.90633C0.568584 10.4142 0 11.1457 0 12.0833H1ZM11.9375 9.6715L11.6643 10.6335C12.5156 10.8752 13.1514 11.182 13.5515 11.4904C13.9617 11.8065 14 12.0185 14 12.0833H15H16C16 11.1457 15.4314 10.4142 14.7725 9.90633C14.1035 9.39071 13.2081 8.99279 12.2107 8.70954L11.9375 9.6715Z" fill="#8C6CDA"/>
</svg>
