<?xml version="1.0" encoding="UTF-8"?>
<svg id="Camada_1" data-name="Camada 1" xmlns="http://www.w3.org/2000/svg" xmlns:xlink="http://www.w3.org/1999/xlink" viewBox="0 0 291 146.51">
  <defs>
    <style>
      .cls-1 {
        fill: none;
        stroke: #000;
        stroke-width: 3.54px;
      }

      .cls-2 {
        fill: url(#Gradiente_sem_nome_2);
      }

      .cls-3 {
        fill: #d1d1d1;
      }
    </style>
    <linearGradient id="Gradiente_sem_nome_2" data-name="Gradiente sem nome 2" x1="181.98" y1="130.14" x2="15.98" y2=".14" gradientTransform="translate(0 145.2) scale(1 -1)" gradientUnits="userSpaceOnUse">
      <stop offset="0" stop-color="#8d8d8d"/>
      <stop offset=".84" stop-color="#000"/>
    </linearGradient>
  </defs>
  <path class="cls-3" d="M0,146.51c-.27-38.59,14.81-75.7,41.91-103.18C69.01,15.85,105.91.27,144.5,0c38.59-.27,75.7,14.81,103.18,41.91,27.47,27.1,43.06,64,43.32,102.59l-21.82.15c-.11-16.24-3.42-32.3-9.74-47.26-6.32-14.96-15.52-28.53-27.09-39.94-23.35-23.03-54.9-35.85-87.7-35.62-32.8.23-64.17,13.47-87.2,36.83-23.03,23.35-35.85,54.9-35.62,87.7L0,146.51Z"/>
  <path class="cls-2" d="M0,145.51C0,116.73,8.53,88.6,24.52,64.67c15.99-23.93,38.71-42.58,65.3-53.59C116.41.07,145.66-2.81,173.89,2.8c28.23,5.61,54.15,19.47,74.5,39.82l-15.43,15.43c-17.3-17.3-39.33-29.08-63.32-33.85-23.99-4.77-48.86-2.32-71.46,7.04-22.6,9.36-41.91,25.21-55.5,45.55-13.59,20.34-20.84,44.25-20.84,68.71H0Z"/>
  <path class="cls-1" d="M264.05,61.05l-17.66,12.82"/>
</svg>