<svg width="10" height="10" viewBox="0 0 10 10" fill="none" xmlns="http://www.w3.org/2000/svg">
<path d="M3.5 6.5L6.5 3.5M3.73079 3.72889L3.7249 3.72294M6.27684 6.30112L6.27094 6.29517M3.30119 1.82805L2.87706 1.85388C2.32646 1.88742 1.88742 2.32646 1.85388 2.87706L1.82805 3.30119C1.81324 3.54449 1.71741 3.77582 1.55585 3.95833L1.27422 4.2765C0.908595 4.68955 0.908595 5.31045 1.27422 5.7235L1.55586 6.04167C1.71741 6.22418 1.81324 6.45551 1.82805 6.69881L1.85388 7.12294C1.88742 7.67354 2.32646 8.11258 2.87706 8.14612L3.30119 8.17195C3.54449 8.18676 3.77582 8.28259 3.95833 8.44414L4.2765 8.72578C4.68955 9.09141 5.31045 9.09141 5.7235 8.72578L6.04167 8.44414C6.22418 8.28259 6.45551 8.18676 6.69881 8.17195L7.12294 8.14612C7.67354 8.11258 8.11258 7.67354 8.14612 7.12294L8.17195 6.69881C8.18676 6.45551 8.28259 6.22418 8.44414 6.04167L8.72578 5.7235C9.09141 5.31045 9.09141 4.68955 8.72578 4.2765L8.44414 3.95833C8.28259 3.77582 8.18676 3.54449 8.17195 3.30119L8.14612 2.87706C8.11258 2.32646 7.67354 1.88742 7.12294 1.85388L6.69881 1.82805C6.45551 1.81324 6.22418 1.71741 6.04167 1.55585L5.7235 1.27422C5.31045 0.908595 4.68955 0.908595 4.2765 1.27422L3.95833 1.55586C3.77582 1.71741 3.54449 1.81324 3.30119 1.82805Z" stroke="#8C6CDA" stroke-width="1.5" stroke-linecap="round"/>
</svg>
