<svg width="19" height="20" viewBox="0 0 19 20" fill="none" xmlns="http://www.w3.org/2000/svg">
<path d="M9.5 10C10.9397 10 12.3205 9.47322 13.3386 8.53553C14.3566 7.59785 14.9286 6.32608 14.9286 5C14.9286 3.67392 14.3566 2.40215 13.3386 1.46447C12.3205 0.526784 10.9397 0 9.5 0C8.06025 0 6.67947 0.526784 5.66142 1.46447C4.64337 2.40215 4.07143 3.67392 4.07143 5C4.07143 6.32608 4.64337 7.59785 5.66142 8.53553C6.67947 9.47322 8.06025 10 9.5 10ZM7.56183 11.875C3.38438 11.875 0 14.9922 0 18.8398C0 19.4805 0.564063 20 1.2596 20H17.7404C18.4359 20 19 19.4805 19 18.8398C19 14.9922 15.6156 11.875 11.4382 11.875H7.56183Z" fill="white"/>
</svg>
