<svg width="33" height="31" viewBox="0 0 33 31" fill="none" xmlns="http://www.w3.org/2000/svg">
<path d="M6.54812 29.5L20.8511 16.1892L27.5819 22.8446M6.54812 29.5H23.3752C26.1632 29.5 28.4233 27.2652 28.4233 24.5084V16.1892M6.54812 29.5C3.76012 29.5 1.5 27.2652 1.5 24.5084V7.86993C1.5 5.11317 3.76012 2.87838 6.54812 2.87838H17.4857M26.7406 10.9122L26.7406 6.20608M26.7406 6.20608L26.7406 1.5M26.7406 6.20608L21.9812 6.20608M26.7406 6.20608L31.5 6.20608M11.5962 10.3657C11.5962 11.7441 10.4662 12.8615 9.07218 12.8615C7.67818 12.8615 6.54812 11.7441 6.54812 10.3657C6.54812 8.98733 7.67818 7.86993 9.07218 7.86993C10.4662 7.86993 11.5962 8.98733 11.5962 10.3657Z" stroke="white" stroke-width="3" stroke-linecap="round" stroke-linejoin="round"/>
</svg>
